solid OpenSCAD_Model
  facet normal 0.951059 0.309008 0
    outer loop
      vertex 20.052 4.26219 11
      vertex 18.7277 8.3381 0
      vertex 18.7277 8.3381 11
    endloop
  endfacet
  facet normal 0.951059 0.309008 0
    outer loop
      vertex 18.7277 8.3381 0
      vertex 20.052 4.26219 11
      vertex 20.052 4.26219 0
    endloop
  endfacet
  facet normal 0.994521 0.104534 0
    outer loop
      vertex 20.5 0 11
      vertex 20.052 4.26219 0
      vertex 20.052 4.26219 11
    endloop
  endfacet
  facet normal 0.994521 0.104534 0
    outer loop
      vertex 20.052 4.26219 0
      vertex 20.5 0 11
      vertex 20.5 0 0
    endloop
  endfacet
  facet normal 0.994521 -0.104534 0
    outer loop
      vertex 20.052 -4.26219 11
      vertex 20.5 0 0
      vertex 20.5 0 11
    endloop
  endfacet
  facet normal 0.994521 -0.104534 0
    outer loop
      vertex 20.5 0 0
      vertex 20.052 -4.26219 11
      vertex 20.052 -4.26219 0
    endloop
  endfacet
  facet normal -0.207902 -0.97815 0
    outer loop
      vertex -6.33485 -19.4967 0
      vertex -2.14283 -20.3877 11
      vertex -6.33485 -19.4967 11
    endloop
  endfacet
  facet normal -0.207902 -0.97815 -0
    outer loop
      vertex -2.14283 -20.3877 11
      vertex -6.33485 -19.4967 0
      vertex -2.14283 -20.3877 0
    endloop
  endfacet
  facet normal 0.951059 -0.309008 0
    outer loop
      vertex 18.7277 -8.3381 11
      vertex 20.052 -4.26219 0
      vertex 20.052 -4.26219 11
    endloop
  endfacet
  facet normal 0.951059 -0.309008 0
    outer loop
      vertex 20.052 -4.26219 0
      vertex 18.7277 -8.3381 11
      vertex 18.7277 -8.3381 0
    endloop
  endfacet
  facet normal -0.866019 -0.500011 0
    outer loop
      vertex -16.5848 -12.0496 0
      vertex -18.7277 -8.3381 11
      vertex -18.7277 -8.3381 0
    endloop
  endfacet
  facet normal -0.866019 -0.500011 0
    outer loop
      vertex -18.7277 -8.3381 11
      vertex -16.5848 -12.0496 0
      vertex -16.5848 -12.0496 11
    endloop
  endfacet
  facet normal -0.587775 -0.809025 0
    outer loop
      vertex -13.7172 -15.2345 0
      vertex -10.25 -17.7535 11
      vertex -13.7172 -15.2345 11
    endloop
  endfacet
  facet normal -0.587775 -0.809025 -0
    outer loop
      vertex -10.25 -17.7535 11
      vertex -13.7172 -15.2345 0
      vertex -10.25 -17.7535 0
    endloop
  endfacet
  facet normal 0.406749 0.91354 -0
    outer loop
      vertex 10.25 17.7535 0
      vertex 6.33485 19.4967 11
      vertex 10.25 17.7535 11
    endloop
  endfacet
  facet normal 0.406749 0.91354 0
    outer loop
      vertex 6.33485 19.4967 11
      vertex 10.25 17.7535 0
      vertex 6.33485 19.4967 0
    endloop
  endfacet
  facet normal 0.587775 -0.809025 0
    outer loop
      vertex 10.25 -17.7535 0
      vertex 13.7172 -15.2345 11
      vertex 10.25 -17.7535 11
    endloop
  endfacet
  facet normal 0.587775 -0.809025 0
    outer loop
      vertex 13.7172 -15.2345 11
      vertex 10.25 -17.7535 0
      vertex 13.7172 -15.2345 0
    endloop
  endfacet
  facet normal -0.587775 0.809025 0
    outer loop
      vertex -10.25 17.7535 0
      vertex -13.7172 15.2345 11
      vertex -10.25 17.7535 11
    endloop
  endfacet
  facet normal -0.587775 0.809025 0
    outer loop
      vertex -13.7172 15.2345 11
      vertex -10.25 17.7535 0
      vertex -13.7172 15.2345 0
    endloop
  endfacet
  facet normal -0.951059 -0.309008 0
    outer loop
      vertex -18.7277 -8.3381 0
      vertex -20.052 -4.26219 11
      vertex -20.052 -4.26219 0
    endloop
  endfacet
  facet normal -0.951059 -0.309008 0
    outer loop
      vertex -20.052 -4.26219 11
      vertex -18.7277 -8.3381 0
      vertex -18.7277 -8.3381 11
    endloop
  endfacet
  facet normal 0.866019 -0.500011 0
    outer loop
      vertex 16.5848 -12.0496 11
      vertex 18.7277 -8.3381 0
      vertex 18.7277 -8.3381 11
    endloop
  endfacet
  facet normal 0.866019 -0.500011 0
    outer loop
      vertex 18.7277 -8.3381 0
      vertex 16.5848 -12.0496 11
      vertex 16.5848 -12.0496 0
    endloop
  endfacet
  facet normal 0 1 -0
    outer loop
      vertex 2.14283 20.3877 0
      vertex -2.14283 20.3877 11
      vertex 2.14283 20.3877 11
    endloop
  endfacet
  facet normal 0 1 0
    outer loop
      vertex -2.14283 20.3877 11
      vertex 2.14283 20.3877 0
      vertex -2.14283 20.3877 0
    endloop
  endfacet
  facet normal -0.951059 0.309008 0
    outer loop
      vertex -20.052 4.26219 0
      vertex -18.7277 8.3381 11
      vertex -18.7277 8.3381 0
    endloop
  endfacet
  facet normal -0.951059 0.309008 0
    outer loop
      vertex -18.7277 8.3381 11
      vertex -20.052 4.26219 0
      vertex -20.052 4.26219 11
    endloop
  endfacet
  facet normal 0 -1 0
    outer loop
      vertex -2.14283 -20.3877 0
      vertex 2.14283 -20.3877 11
      vertex -2.14283 -20.3877 11
    endloop
  endfacet
  facet normal 0 -1 -0
    outer loop
      vertex 2.14283 -20.3877 11
      vertex -2.14283 -20.3877 0
      vertex 2.14283 -20.3877 0
    endloop
  endfacet
  facet normal -0.866019 0.500011 0
    outer loop
      vertex -18.7277 8.3381 0
      vertex -16.5848 12.0496 11
      vertex -16.5848 12.0496 0
    endloop
  endfacet
  facet normal -0.866019 0.500011 0
    outer loop
      vertex -16.5848 12.0496 11
      vertex -18.7277 8.3381 0
      vertex -18.7277 8.3381 11
    endloop
  endfacet
  facet normal -0.743156 0.669118 0
    outer loop
      vertex -16.5848 12.0496 0
      vertex -13.7172 15.2345 11
      vertex -13.7172 15.2345 0
    endloop
  endfacet
  facet normal -0.743156 0.669118 0
    outer loop
      vertex -13.7172 15.2345 11
      vertex -16.5848 12.0496 0
      vertex -16.5848 12.0496 11
    endloop
  endfacet
  facet normal -0.207902 0.97815 0
    outer loop
      vertex -2.14283 20.3877 0
      vertex -6.33485 19.4967 11
      vertex -2.14283 20.3877 11
    endloop
  endfacet
  facet normal -0.207902 0.97815 0
    outer loop
      vertex -6.33485 19.4967 11
      vertex -2.14283 20.3877 0
      vertex -6.33485 19.4967 0
    endloop
  endfacet
  facet normal 0.207902 -0.97815 0
    outer loop
      vertex 2.14283 -20.3877 0
      vertex 6.33485 -19.4967 11
      vertex 2.14283 -20.3877 11
    endloop
  endfacet
  facet normal 0.207902 -0.97815 0
    outer loop
      vertex 6.33485 -19.4967 11
      vertex 2.14283 -20.3877 0
      vertex 6.33485 -19.4967 0
    endloop
  endfacet
  facet normal 0.743156 -0.669118 0
    outer loop
      vertex 13.7172 -15.2345 11
      vertex 16.5848 -12.0496 0
      vertex 16.5848 -12.0496 11
    endloop
  endfacet
  facet normal 0.743156 -0.669118 0
    outer loop
      vertex 16.5848 -12.0496 0
      vertex 13.7172 -15.2345 11
      vertex 13.7172 -15.2345 0
    endloop
  endfacet
  facet normal -0.406749 0.91354 0
    outer loop
      vertex -6.33485 19.4967 0
      vertex -10.25 17.7535 11
      vertex -6.33485 19.4967 11
    endloop
  endfacet
  facet normal -0.406749 0.91354 0
    outer loop
      vertex -10.25 17.7535 11
      vertex -6.33485 19.4967 0
      vertex -10.25 17.7535 0
    endloop
  endfacet
  facet normal 0.406749 -0.91354 0
    outer loop
      vertex 6.33485 -19.4967 0
      vertex 10.25 -17.7535 11
      vertex 6.33485 -19.4967 11
    endloop
  endfacet
  facet normal 0.406749 -0.91354 0
    outer loop
      vertex 10.25 -17.7535 11
      vertex 6.33485 -19.4967 0
      vertex 10.25 -17.7535 0
    endloop
  endfacet
  facet normal 0.587775 0.809025 -0
    outer loop
      vertex 13.7172 15.2345 0
      vertex 10.25 17.7535 11
      vertex 13.7172 15.2345 11
    endloop
  endfacet
  facet normal 0.587775 0.809025 0
    outer loop
      vertex 10.25 17.7535 11
      vertex 13.7172 15.2345 0
      vertex 10.25 17.7535 0
    endloop
  endfacet
  facet normal 0.743156 0.669118 0
    outer loop
      vertex 16.5848 12.0496 11
      vertex 13.7172 15.2345 0
      vertex 13.7172 15.2345 11
    endloop
  endfacet
  facet normal 0.743156 0.669118 0
    outer loop
      vertex 13.7172 15.2345 0
      vertex 16.5848 12.0496 11
      vertex 16.5848 12.0496 0
    endloop
  endfacet
  facet normal 0.207902 0.97815 -0
    outer loop
      vertex 6.33485 19.4967 0
      vertex 2.14283 20.3877 11
      vertex 6.33485 19.4967 11
    endloop
  endfacet
  facet normal 0.207902 0.97815 0
    outer loop
      vertex 2.14283 20.3877 11
      vertex 6.33485 19.4967 0
      vertex 2.14283 20.3877 0
    endloop
  endfacet
  facet normal -0.994521 0.104534 0
    outer loop
      vertex -20.5 0 0
      vertex -20.052 4.26219 11
      vertex -20.052 4.26219 0
    endloop
  endfacet
  facet normal -0.994521 0.104534 0
    outer loop
      vertex -20.052 4.26219 11
      vertex -20.5 0 0
      vertex -20.5 0 11
    endloop
  endfacet
  facet normal 0.866019 0.500011 0
    outer loop
      vertex 18.7277 8.3381 11
      vertex 16.5848 12.0496 0
      vertex 16.5848 12.0496 11
    endloop
  endfacet
  facet normal 0.866019 0.500011 0
    outer loop
      vertex 16.5848 12.0496 0
      vertex 18.7277 8.3381 11
      vertex 18.7277 8.3381 0
    endloop
  endfacet
  facet normal -0.994521 -0.104534 0
    outer loop
      vertex -20.052 -4.26219 0
      vertex -20.5 0 11
      vertex -20.5 0 0
    endloop
  endfacet
  facet normal -0.994521 -0.104534 0
    outer loop
      vertex -20.5 0 11
      vertex -20.052 -4.26219 0
      vertex -20.052 -4.26219 11
    endloop
  endfacet
  facet normal -0.743156 -0.669118 0
    outer loop
      vertex -13.7172 -15.2345 0
      vertex -16.5848 -12.0496 11
      vertex -16.5848 -12.0496 0
    endloop
  endfacet
  facet normal -0.743156 -0.669118 0
    outer loop
      vertex -16.5848 -12.0496 11
      vertex -13.7172 -15.2345 0
      vertex -13.7172 -15.2345 11
    endloop
  endfacet
  facet normal 0 0 -1
    outer loop
      vertex 16 0 0
      vertex 20.5 0 0
      vertex 20.052 -4.26219 0
    endloop
  endfacet
  facet normal 0 0 -1
    outer loop
      vertex 15.6504 -3.32659 0
      vertex 20.052 -4.26219 0
      vertex 18.7277 -8.3381 0
    endloop
  endfacet
  facet normal 0 0 -1
    outer loop
      vertex 20.5 0 0
      vertex 16 0 0
      vertex 20.052 4.26219 0
    endloop
  endfacet
  facet normal 0 0 -1
    outer loop
      vertex 14.6167 -6.50779 0
      vertex 18.7277 -8.3381 0
      vertex 16.5848 -12.0496 0
    endloop
  endfacet
  facet normal 0 0 -1
    outer loop
      vertex 15.6504 3.32659 0
      vertex 20.052 4.26219 0
      vertex 16 0 0
    endloop
  endfacet
  facet normal -0 0 -1
    outer loop
      vertex 20.052 4.26219 0
      vertex 15.6504 3.32659 0
      vertex 18.7277 8.3381 0
    endloop
  endfacet
  facet normal 0 0 -1
    outer loop
      vertex 20.052 -4.26219 0
      vertex 15.6504 -3.32659 0
      vertex 16 0 0
    endloop
  endfacet
  facet normal 0 0 -1
    outer loop
      vertex 18.7277 -8.3381 0
      vertex 14.6167 -6.50779 0
      vertex 15.6504 -3.32659 0
    endloop
  endfacet
  facet normal 0 0 -1
    outer loop
      vertex 12.9443 -9.40456 0
      vertex 16.5848 -12.0496 0
      vertex 13.7172 -15.2345 0
    endloop
  endfacet
  facet normal 0 0 -1
    outer loop
      vertex 16.5848 -12.0496 0
      vertex 12.9443 -9.40456 0
      vertex 14.6167 -6.50779 0
    endloop
  endfacet
  facet normal 0 0 -1
    outer loop
      vertex 13.7172 -15.2345 0
      vertex 10.7061 -11.8903 0
      vertex 12.9443 -9.40456 0
    endloop
  endfacet
  facet normal 0 0 -1
    outer loop
      vertex 10.25 -17.7535 0
      vertex 10.7061 -11.8903 0
      vertex 13.7172 -15.2345 0
    endloop
  endfacet
  facet normal 0 0 -1
    outer loop
      vertex 10.25 -17.7535 0
      vertex 8 -13.8564 0
      vertex 10.7061 -11.8903 0
    endloop
  endfacet
  facet normal 0 0 -1
    outer loop
      vertex 6.33485 -19.4967 0
      vertex 8 -13.8564 0
      vertex 10.25 -17.7535 0
    endloop
  endfacet
  facet normal 0 0 -1
    outer loop
      vertex 6.33485 -19.4967 0
      vertex 4.94427 -15.2169 0
      vertex 8 -13.8564 0
    endloop
  endfacet
  facet normal 0 0 -1
    outer loop
      vertex 2.14283 -20.3877 0
      vertex 4.94427 -15.2169 0
      vertex 6.33485 -19.4967 0
    endloop
  endfacet
  facet normal 0 0 -1
    outer loop
      vertex 2.14283 -20.3877 0
      vertex 1.67245 -15.9123 0
      vertex 4.94427 -15.2169 0
    endloop
  endfacet
  facet normal 0 0 -1
    outer loop
      vertex 2.14283 -20.3877 0
      vertex -1.67245 -15.9123 0
      vertex 1.67245 -15.9123 0
    endloop
  endfacet
  facet normal 0 0 -1
    outer loop
      vertex -2.14283 -20.3877 0
      vertex -1.67245 -15.9123 0
      vertex 2.14283 -20.3877 0
    endloop
  endfacet
  facet normal 0 0 -1
    outer loop
      vertex -2.14283 -20.3877 0
      vertex -4.94427 -15.2169 0
      vertex -1.67245 -15.9123 0
    endloop
  endfacet
  facet normal 0 0 -1
    outer loop
      vertex -6.33485 -19.4967 0
      vertex -4.94427 -15.2169 0
      vertex -2.14283 -20.3877 0
    endloop
  endfacet
  facet normal 0 0 -1
    outer loop
      vertex -6.33485 -19.4967 0
      vertex -8 -13.8564 0
      vertex -4.94427 -15.2169 0
    endloop
  endfacet
  facet normal 0 0 -1
    outer loop
      vertex -10.25 -17.7535 0
      vertex -8 -13.8564 0
      vertex -6.33485 -19.4967 0
    endloop
  endfacet
  facet normal 0 0 -1
    outer loop
      vertex -10.25 -17.7535 0
      vertex -10.7061 -11.8903 0
      vertex -8 -13.8564 0
    endloop
  endfacet
  facet normal 0 0 -1
    outer loop
      vertex -13.7172 -15.2345 0
      vertex -10.7061 -11.8903 0
      vertex -10.25 -17.7535 0
    endloop
  endfacet
  facet normal -0 0 -1
    outer loop
      vertex -10.7061 -11.8903 0
      vertex -13.7172 -15.2345 0
      vertex -12.9443 -9.40456 0
    endloop
  endfacet
  facet normal 0 0 -1
    outer loop
      vertex -16.5848 -12.0496 0
      vertex -12.9443 -9.40456 0
      vertex -13.7172 -15.2345 0
    endloop
  endfacet
  facet normal -0 0 -1
    outer loop
      vertex -12.9443 -9.40456 0
      vertex -16.5848 -12.0496 0
      vertex -14.6167 -6.50779 0
    endloop
  endfacet
  facet normal -0 0 -1
    outer loop
      vertex -14.6167 -6.50779 0
      vertex -18.7277 -8.3381 0
      vertex -15.6504 -3.32659 0
    endloop
  endfacet
  facet normal 0 0 -1
    outer loop
      vertex -18.7277 -8.3381 0
      vertex -14.6167 -6.50779 0
      vertex -16.5848 -12.0496 0
    endloop
  endfacet
  facet normal 0 0 -1
    outer loop
      vertex 14.6167 6.50779 0
      vertex 18.7277 8.3381 0
      vertex 15.6504 3.32659 0
    endloop
  endfacet
  facet normal -0 0 -1
    outer loop
      vertex 18.7277 8.3381 0
      vertex 14.6167 6.50779 0
      vertex 16.5848 12.0496 0
    endloop
  endfacet
  facet normal 0 0 -1
    outer loop
      vertex 12.9443 9.40456 0
      vertex 16.5848 12.0496 0
      vertex 14.6167 6.50779 0
    endloop
  endfacet
  facet normal -0 0 -1
    outer loop
      vertex 16.5848 12.0496 0
      vertex 12.9443 9.40456 0
      vertex 13.7172 15.2345 0
    endloop
  endfacet
  facet normal 0 0 -1
    outer loop
      vertex 10.7061 11.8903 0
      vertex 13.7172 15.2345 0
      vertex 12.9443 9.40456 0
    endloop
  endfacet
  facet normal 0 0 -1
    outer loop
      vertex 10.7061 11.8903 0
      vertex 10.25 17.7535 0
      vertex 13.7172 15.2345 0
    endloop
  endfacet
  facet normal 0 0 -1
    outer loop
      vertex 8 13.8564 0
      vertex 10.25 17.7535 0
      vertex 10.7061 11.8903 0
    endloop
  endfacet
  facet normal 0 0 -1
    outer loop
      vertex 8 13.8564 0
      vertex 6.33485 19.4967 0
      vertex 10.25 17.7535 0
    endloop
  endfacet
  facet normal 0 0 -1
    outer loop
      vertex 4.94427 15.2169 0
      vertex 6.33485 19.4967 0
      vertex 8 13.8564 0
    endloop
  endfacet
  facet normal 0 0 -1
    outer loop
      vertex 4.94427 15.2169 0
      vertex 2.14283 20.3877 0
      vertex 6.33485 19.4967 0
    endloop
  endfacet
  facet normal 0 0 -1
    outer loop
      vertex 1.67245 15.9123 0
      vertex 2.14283 20.3877 0
      vertex 4.94427 15.2169 0
    endloop
  endfacet
  facet normal 0 0 -1
    outer loop
      vertex -1.67245 15.9123 0
      vertex 2.14283 20.3877 0
      vertex 1.67245 15.9123 0
    endloop
  endfacet
  facet normal 0 0 -1
    outer loop
      vertex -1.67245 15.9123 0
      vertex -2.14283 20.3877 0
      vertex 2.14283 20.3877 0
    endloop
  endfacet
  facet normal 0 0 -1
    outer loop
      vertex -4.94427 15.2169 0
      vertex -2.14283 20.3877 0
      vertex -1.67245 15.9123 0
    endloop
  endfacet
  facet normal 0 0 -1
    outer loop
      vertex -4.94427 15.2169 0
      vertex -6.33485 19.4967 0
      vertex -2.14283 20.3877 0
    endloop
  endfacet
  facet normal 0 0 -1
    outer loop
      vertex -8 13.8564 0
      vertex -6.33485 19.4967 0
      vertex -4.94427 15.2169 0
    endloop
  endfacet
  facet normal 0 0 -1
    outer loop
      vertex -8 13.8564 0
      vertex -10.25 17.7535 0
      vertex -6.33485 19.4967 0
    endloop
  endfacet
  facet normal 0 0 -1
    outer loop
      vertex -10.7061 11.8903 0
      vertex -10.25 17.7535 0
      vertex -8 13.8564 0
    endloop
  endfacet
  facet normal 0 0 -1
    outer loop
      vertex -13.7172 15.2345 0
      vertex -10.7061 11.8903 0
      vertex -12.9443 9.40456 0
    endloop
  endfacet
  facet normal 0 0 -1
    outer loop
      vertex -10.7061 11.8903 0
      vertex -13.7172 15.2345 0
      vertex -10.25 17.7535 0
    endloop
  endfacet
  facet normal 0 0 -1
    outer loop
      vertex -16.5848 12.0496 0
      vertex -12.9443 9.40456 0
      vertex -14.6167 6.50779 0
    endloop
  endfacet
  facet normal 0 0 -1
    outer loop
      vertex -18.7277 8.3381 0
      vertex -14.6167 6.50779 0
      vertex -15.6504 3.32659 0
    endloop
  endfacet
  facet normal 0 0 -1
    outer loop
      vertex -12.9443 9.40456 0
      vertex -16.5848 12.0496 0
      vertex -13.7172 15.2345 0
    endloop
  endfacet
  facet normal 0 0 -1
    outer loop
      vertex -20.052 4.26219 0
      vertex -15.6504 3.32659 0
      vertex -16 0 0
    endloop
  endfacet
  facet normal 0 0 -1
    outer loop
      vertex -20.052 -4.26219 0
      vertex -15.6504 -3.32659 0
      vertex -18.7277 -8.3381 0
    endloop
  endfacet
  facet normal -0 0 -1
    outer loop
      vertex -15.6504 -3.32659 0
      vertex -20.052 -4.26219 0
      vertex -16 0 0
    endloop
  endfacet
  facet normal 0 0 -1
    outer loop
      vertex -14.6167 6.50779 0
      vertex -18.7277 8.3381 0
      vertex -16.5848 12.0496 0
    endloop
  endfacet
  facet normal 0 0 -1
    outer loop
      vertex -20.5 0 0
      vertex -16 0 0
      vertex -20.052 -4.26219 0
    endloop
  endfacet
  facet normal 0 0 -1
    outer loop
      vertex -15.6504 3.32659 0
      vertex -20.052 4.26219 0
      vertex -18.7277 8.3381 0
    endloop
  endfacet
  facet normal 0 0 -1
    outer loop
      vertex -16 0 0
      vertex -20.5 0 0
      vertex -20.052 4.26219 0
    endloop
  endfacet
  facet normal -0.406749 -0.91354 0
    outer loop
      vertex -10.25 -17.7535 0
      vertex -6.33485 -19.4967 11
      vertex -10.25 -17.7535 11
    endloop
  endfacet
  facet normal -0.406749 -0.91354 -0
    outer loop
      vertex -6.33485 -19.4967 11
      vertex -10.25 -17.7535 0
      vertex -6.33485 -19.4967 0
    endloop
  endfacet
  facet normal 0.918763 0.0965714 0.382818
    outer loop
      vertex 20.052 4.26219 11
      vertex 18 0 17
      vertex 20.5 0 11
    endloop
  endfacet
  facet normal 0.543012 -0.747387 0.38282
    outer loop
      vertex 12.0444 -13.3766 17
      vertex 9 -15.5885 17
      vertex 13.7172 -15.2345 11
    endloop
  endfacet
  facet normal 0.800055 -0.461914 0.382816
    outer loop
      vertex 16.4438 -7.32126 17
      vertex 14.5623 -10.5801 17
      vertex 16.5848 -12.0496 11
    endloop
  endfacet
  facet normal -0.192065 0.903638 0.382818
    outer loop
      vertex -2.14283 20.3877 11
      vertex -6.33485 19.4967 11
      vertex -1.88151 17.9014 17
    endloop
  endfacet
  facet normal -0.87861 -0.285468 0.382822
    outer loop
      vertex -16.4438 -7.32126 17
      vertex -20.052 -4.26219 11
      vertex -18.7277 -8.3381 11
    endloop
  endfacet
  facet normal -0.192078 0.903632 0.382826
    outer loop
      vertex -1.88151 17.9014 17
      vertex -6.33485 19.4967 11
      vertex -5.56231 17.119 17
    endloop
  endfacet
  facet normal -0.87861 0.285468 0.382822
    outer loop
      vertex -18.7277 8.3381 11
      vertex -20.052 4.26219 11
      vertex -16.4438 7.32126 17
    endloop
  endfacet
  facet normal 0.686545 -0.618147 0.382818
    outer loop
      vertex 14.5623 -10.5801 17
      vertex 13.7172 -15.2345 11
      vertex 16.5848 -12.0496 11
    endloop
  endfacet
  facet normal 0.686545 0.618147 0.382818
    outer loop
      vertex 16.5848 12.0496 11
      vertex 13.7172 15.2345 11
      vertex 14.5623 10.5801 17
    endloop
  endfacet
  facet normal 0.37574 0.843958 0.382825
    outer loop
      vertex 6.33485 19.4967 11
      vertex 5.56231 17.119 17
      vertex 9 15.5885 17
    endloop
  endfacet
  facet normal 0.686545 -0.618148 0.382818
    outer loop
      vertex 14.5623 -10.5801 17
      vertex 12.0444 -13.3766 17
      vertex 13.7172 -15.2345 11
    endloop
  endfacet
  facet normal -0.192065 -0.903638 0.382818
    outer loop
      vertex -1.88151 -17.9014 17
      vertex -6.33485 -19.4967 11
      vertex -2.14283 -20.3877 11
    endloop
  endfacet
  facet normal -0.800055 0.461914 0.382816
    outer loop
      vertex -14.5623 10.5801 17
      vertex -16.5848 12.0496 11
      vertex -16.4438 7.32126 17
    endloop
  endfacet
  facet normal 0.375766 -0.843953 0.382811
    outer loop
      vertex 9 -15.5885 17
      vertex 6.33485 -19.4967 11
      vertex 10.25 -17.7535 11
    endloop
  endfacet
  facet normal 0.878608 0.285492 0.382809
    outer loop
      vertex 20.052 4.26219 11
      vertex 16.4438 7.32126 17
      vertex 17.6067 3.74241 17
    endloop
  endfacet
  facet normal 0.800055 0.461914 0.382816
    outer loop
      vertex 16.5848 12.0496 11
      vertex 14.5623 10.5801 17
      vertex 16.4438 7.32126 17
    endloop
  endfacet
  facet normal 0.800048 -0.461922 0.382822
    outer loop
      vertex 18.7277 -8.3381 11
      vertex 16.4438 -7.32126 17
      vertex 16.5848 -12.0496 11
    endloop
  endfacet
  facet normal 0.686545 0.618148 0.382818
    outer loop
      vertex 13.7172 15.2345 11
      vertex 12.0444 13.3766 17
      vertex 14.5623 10.5801 17
    endloop
  endfacet
  facet normal -0.918763 0.0965714 0.382818
    outer loop
      vertex -20.052 4.26219 11
      vertex -20.5 0 11
      vertex -18 0 17
    endloop
  endfacet
  facet normal -0.686545 0.618147 0.382818
    outer loop
      vertex -13.7172 15.2345 11
      vertex -16.5848 12.0496 11
      vertex -14.5623 10.5801 17
    endloop
  endfacet
  facet normal -0.543002 -0.747398 0.382812
    outer loop
      vertex -9 -15.5885 17
      vertex -13.7172 -15.2345 11
      vertex -10.25 -17.7535 11
    endloop
  endfacet
  facet normal 0.192078 -0.903632 0.382826
    outer loop
      vertex 5.56231 -17.119 17
      vertex 1.88151 -17.9014 17
      vertex 6.33485 -19.4967 11
    endloop
  endfacet
  facet normal 0.918763 -0.0965714 0.382818
    outer loop
      vertex 20.5 0 11
      vertex 18 0 17
      vertex 20.052 -4.26219 11
    endloop
  endfacet
  facet normal 0.87861 0.285468 0.382822
    outer loop
      vertex 18.7277 8.3381 11
      vertex 16.4438 7.32126 17
      vertex 20.052 4.26219 11
    endloop
  endfacet
  facet normal -0.800048 0.461922 0.382822
    outer loop
      vertex -16.5848 12.0496 11
      vertex -18.7277 8.3381 11
      vertex -16.4438 7.32126 17
    endloop
  endfacet
  facet normal 0.918768 0.0965558 0.382809
    outer loop
      vertex 20.052 4.26219 11
      vertex 17.6067 3.74241 17
      vertex 18 0 17
    endloop
  endfacet
  facet normal 0.37574 -0.843958 0.382825
    outer loop
      vertex 9 -15.5885 17
      vertex 5.56231 -17.119 17
      vertex 6.33485 -19.4967 11
    endloop
  endfacet
  facet normal -0.375766 0.843953 0.382811
    outer loop
      vertex -6.33485 19.4967 11
      vertex -10.25 17.7535 11
      vertex -9 15.5885 17
    endloop
  endfacet
  facet normal -0.800055 -0.461914 0.382816
    outer loop
      vertex -16.4438 -7.32126 17
      vertex -16.5848 -12.0496 11
      vertex -14.5623 -10.5801 17
    endloop
  endfacet
  facet normal 0.192078 0.903632 0.382826
    outer loop
      vertex 6.33485 19.4967 11
      vertex 1.88151 17.9014 17
      vertex 5.56231 17.119 17
    endloop
  endfacet
  facet normal 0.192065 -0.903638 0.382818
    outer loop
      vertex 6.33485 -19.4967 11
      vertex 1.88151 -17.9014 17
      vertex 2.14283 -20.3877 11
    endloop
  endfacet
  facet normal -0.686545 0.618148 0.382818
    outer loop
      vertex -13.7172 15.2345 11
      vertex -14.5623 10.5801 17
      vertex -12.0444 13.3766 17
    endloop
  endfacet
  facet normal 0 0 1
    outer loop
      vertex 16 0 17
      vertex 18 0 17
      vertex 17.6067 3.74241 17
    endloop
  endfacet
  facet normal 0 0 1
    outer loop
      vertex 15.6504 3.32659 17
      vertex 17.6067 3.74241 17
      vertex 16.4438 7.32126 17
    endloop
  endfacet
  facet normal 0 0 1
    outer loop
      vertex 18 0 17
      vertex 16 0 17
      vertex 17.6067 -3.74241 17
    endloop
  endfacet
  facet normal -0 0 1
    outer loop
      vertex 15.6504 -3.32659 17
      vertex 17.6067 -3.74241 17
      vertex 16 0 17
    endloop
  endfacet
  facet normal 0 0 1
    outer loop
      vertex 17.6067 3.74241 17
      vertex 15.6504 3.32659 17
      vertex 16 0 17
    endloop
  endfacet
  facet normal 0 0 1
    outer loop
      vertex 16.4438 7.32126 17
      vertex 14.6167 6.50779 17
      vertex 15.6504 3.32659 17
    endloop
  endfacet
  facet normal 0 0 1
    outer loop
      vertex 14.5623 10.5801 17
      vertex 14.6167 6.50779 17
      vertex 16.4438 7.32126 17
    endloop
  endfacet
  facet normal 0 0 1
    outer loop
      vertex 14.5623 10.5801 17
      vertex 12.9443 9.40456 17
      vertex 14.6167 6.50779 17
    endloop
  endfacet
  facet normal 0 0 1
    outer loop
      vertex 12.0444 13.3766 17
      vertex 12.9443 9.40456 17
      vertex 14.5623 10.5801 17
    endloop
  endfacet
  facet normal 0 0 1
    outer loop
      vertex 12.0444 13.3766 17
      vertex 10.7061 11.8903 17
      vertex 12.9443 9.40456 17
    endloop
  endfacet
  facet normal 0 0 1
    outer loop
      vertex 9 15.5885 17
      vertex 10.7061 11.8903 17
      vertex 12.0444 13.3766 17
    endloop
  endfacet
  facet normal 0 0 1
    outer loop
      vertex 9 15.5885 17
      vertex 8 13.8564 17
      vertex 10.7061 11.8903 17
    endloop
  endfacet
  facet normal 0 0 1
    outer loop
      vertex 5.56231 17.119 17
      vertex 8 13.8564 17
      vertex 9 15.5885 17
    endloop
  endfacet
  facet normal 0 0 1
    outer loop
      vertex 5.56231 17.119 17
      vertex 4.94427 15.2169 17
      vertex 8 13.8564 17
    endloop
  endfacet
  facet normal 0 0 1
    outer loop
      vertex 1.88151 17.9014 17
      vertex 4.94427 15.2169 17
      vertex 5.56231 17.119 17
    endloop
  endfacet
  facet normal 0 0 1
    outer loop
      vertex 1.88151 17.9014 17
      vertex 1.67245 15.9123 17
      vertex 4.94427 15.2169 17
    endloop
  endfacet
  facet normal 0 0 1
    outer loop
      vertex 1.88151 17.9014 17
      vertex -1.67245 15.9123 17
      vertex 1.67245 15.9123 17
    endloop
  endfacet
  facet normal -0 0 1
    outer loop
      vertex -1.88151 17.9014 17
      vertex -1.67245 15.9123 17
      vertex 1.88151 17.9014 17
    endloop
  endfacet
  facet normal 0 0 1
    outer loop
      vertex -1.88151 17.9014 17
      vertex -4.94427 15.2169 17
      vertex -1.67245 15.9123 17
    endloop
  endfacet
  facet normal -0 0 1
    outer loop
      vertex -5.56231 17.119 17
      vertex -4.94427 15.2169 17
      vertex -1.88151 17.9014 17
    endloop
  endfacet
  facet normal 0 0 1
    outer loop
      vertex -5.56231 17.119 17
      vertex -8 13.8564 17
      vertex -4.94427 15.2169 17
    endloop
  endfacet
  facet normal -0 0 1
    outer loop
      vertex -9 15.5885 17
      vertex -8 13.8564 17
      vertex -5.56231 17.119 17
    endloop
  endfacet
  facet normal 0 0 1
    outer loop
      vertex -9 15.5885 17
      vertex -10.7061 11.8903 17
      vertex -8 13.8564 17
    endloop
  endfacet
  facet normal -0 0 1
    outer loop
      vertex -12.0444 13.3766 17
      vertex -10.7061 11.8903 17
      vertex -9 15.5885 17
    endloop
  endfacet
  facet normal 0 0 1
    outer loop
      vertex -12.0444 13.3766 17
      vertex -12.9443 9.40456 17
      vertex -10.7061 11.8903 17
    endloop
  endfacet
  facet normal -0 0 1
    outer loop
      vertex -14.5623 10.5801 17
      vertex -12.9443 9.40456 17
      vertex -12.0444 13.3766 17
    endloop
  endfacet
  facet normal 0 0 1
    outer loop
      vertex -14.5623 10.5801 17
      vertex -14.6167 6.50779 17
      vertex -12.9443 9.40456 17
    endloop
  endfacet
  facet normal -0 0 1
    outer loop
      vertex -16.4438 7.32126 17
      vertex -14.6167 6.50779 17
      vertex -14.5623 10.5801 17
    endloop
  endfacet
  facet normal -0 0 1
    outer loop
      vertex -17.6067 3.74241 17
      vertex -15.6504 3.32659 17
      vertex -16.4438 7.32126 17
    endloop
  endfacet
  facet normal 0 0 1
    outer loop
      vertex -14.6167 6.50779 17
      vertex -16.4438 7.32126 17
      vertex -15.6504 3.32659 17
    endloop
  endfacet
  facet normal 0 0 1
    outer loop
      vertex 17.6067 -3.74241 17
      vertex 15.6504 -3.32659 17
      vertex 16.4438 -7.32126 17
    endloop
  endfacet
  facet normal -0 0 1
    outer loop
      vertex 14.6167 -6.50779 17
      vertex 16.4438 -7.32126 17
      vertex 15.6504 -3.32659 17
    endloop
  endfacet
  facet normal 0 0 1
    outer loop
      vertex 14.6167 -6.50779 17
      vertex 14.5623 -10.5801 17
      vertex 16.4438 -7.32126 17
    endloop
  endfacet
  facet normal -0 0 1
    outer loop
      vertex 12.9443 -9.40456 17
      vertex 14.5623 -10.5801 17
      vertex 14.6167 -6.50779 17
    endloop
  endfacet
  facet normal 0 0 1
    outer loop
      vertex 12.9443 -9.40456 17
      vertex 12.0444 -13.3766 17
      vertex 14.5623 -10.5801 17
    endloop
  endfacet
  facet normal -0 0 1
    outer loop
      vertex 10.7061 -11.8903 17
      vertex 12.0444 -13.3766 17
      vertex 12.9443 -9.40456 17
    endloop
  endfacet
  facet normal 0 0 1
    outer loop
      vertex 10.7061 -11.8903 17
      vertex 9 -15.5885 17
      vertex 12.0444 -13.3766 17
    endloop
  endfacet
  facet normal -0 0 1
    outer loop
      vertex 8 -13.8564 17
      vertex 9 -15.5885 17
      vertex 10.7061 -11.8903 17
    endloop
  endfacet
  facet normal 0 0 1
    outer loop
      vertex 8 -13.8564 17
      vertex 5.56231 -17.119 17
      vertex 9 -15.5885 17
    endloop
  endfacet
  facet normal -0 0 1
    outer loop
      vertex 4.94427 -15.2169 17
      vertex 5.56231 -17.119 17
      vertex 8 -13.8564 17
    endloop
  endfacet
  facet normal 0 0 1
    outer loop
      vertex 4.94427 -15.2169 17
      vertex 1.88151 -17.9014 17
      vertex 5.56231 -17.119 17
    endloop
  endfacet
  facet normal -0 0 1
    outer loop
      vertex 1.67245 -15.9123 17
      vertex 1.88151 -17.9014 17
      vertex 4.94427 -15.2169 17
    endloop
  endfacet
  facet normal -0 0 1
    outer loop
      vertex -1.67245 -15.9123 17
      vertex 1.88151 -17.9014 17
      vertex 1.67245 -15.9123 17
    endloop
  endfacet
  facet normal 0 0 1
    outer loop
      vertex -1.67245 -15.9123 17
      vertex -1.88151 -17.9014 17
      vertex 1.88151 -17.9014 17
    endloop
  endfacet
  facet normal 0 0 1
    outer loop
      vertex -4.94427 -15.2169 17
      vertex -1.88151 -17.9014 17
      vertex -1.67245 -15.9123 17
    endloop
  endfacet
  facet normal 0 0 1
    outer loop
      vertex -4.94427 -15.2169 17
      vertex -5.56231 -17.119 17
      vertex -1.88151 -17.9014 17
    endloop
  endfacet
  facet normal 0 0 1
    outer loop
      vertex -8 -13.8564 17
      vertex -5.56231 -17.119 17
      vertex -4.94427 -15.2169 17
    endloop
  endfacet
  facet normal 0 0 1
    outer loop
      vertex -8 -13.8564 17
      vertex -9 -15.5885 17
      vertex -5.56231 -17.119 17
    endloop
  endfacet
  facet normal 0 0 1
    outer loop
      vertex -10.7061 -11.8903 17
      vertex -9 -15.5885 17
      vertex -8 -13.8564 17
    endloop
  endfacet
  facet normal 0 0 1
    outer loop
      vertex -10.7061 -11.8903 17
      vertex -12.0444 -13.3766 17
      vertex -9 -15.5885 17
    endloop
  endfacet
  facet normal 0 0 1
    outer loop
      vertex -12.9443 -9.40456 17
      vertex -12.0444 -13.3766 17
      vertex -10.7061 -11.8903 17
    endloop
  endfacet
  facet normal 0 0 1
    outer loop
      vertex -12.9443 -9.40456 17
      vertex -14.5623 -10.5801 17
      vertex -12.0444 -13.3766 17
    endloop
  endfacet
  facet normal 0 0 1
    outer loop
      vertex -14.6167 -6.50779 17
      vertex -14.5623 -10.5801 17
      vertex -12.9443 -9.40456 17
    endloop
  endfacet
  facet normal 0 0 1
    outer loop
      vertex -16.4438 -7.32126 17
      vertex -14.6167 -6.50779 17
      vertex -15.6504 -3.32659 17
    endloop
  endfacet
  facet normal 0 0 1
    outer loop
      vertex -14.6167 -6.50779 17
      vertex -16.4438 -7.32126 17
      vertex -14.5623 -10.5801 17
    endloop
  endfacet
  facet normal 0 0 1
    outer loop
      vertex -17.6067 -3.74241 17
      vertex -15.6504 -3.32659 17
      vertex -16 0 17
    endloop
  endfacet
  facet normal 0 0 1
    outer loop
      vertex -15.6504 3.32659 17
      vertex -17.6067 3.74241 17
      vertex -16 0 17
    endloop
  endfacet
  facet normal 0 0 1
    outer loop
      vertex -18 0 17
      vertex -16 0 17
      vertex -17.6067 3.74241 17
    endloop
  endfacet
  facet normal 0 0 1
    outer loop
      vertex -15.6504 -3.32659 17
      vertex -17.6067 -3.74241 17
      vertex -16.4438 -7.32126 17
    endloop
  endfacet
  facet normal 0 0 1
    outer loop
      vertex -16 0 17
      vertex -18 0 17
      vertex -17.6067 -3.74241 17
    endloop
  endfacet
  facet normal 0.543012 0.747387 0.38282
    outer loop
      vertex 13.7172 15.2345 11
      vertex 9 15.5885 17
      vertex 12.0444 13.3766 17
    endloop
  endfacet
  facet normal 0.800048 0.461922 0.382822
    outer loop
      vertex 16.5848 12.0496 11
      vertex 16.4438 7.32126 17
      vertex 18.7277 8.3381 11
    endloop
  endfacet
  facet normal -0.375766 -0.843953 0.382811
    outer loop
      vertex -9 -15.5885 17
      vertex -10.25 -17.7535 11
      vertex -6.33485 -19.4967 11
    endloop
  endfacet
  facet normal -0.37574 0.843958 0.382825
    outer loop
      vertex -6.33485 19.4967 11
      vertex -9 15.5885 17
      vertex -5.56231 17.119 17
    endloop
  endfacet
  facet normal -0.543002 0.747398 0.382812
    outer loop
      vertex -10.25 17.7535 11
      vertex -13.7172 15.2345 11
      vertex -9 15.5885 17
    endloop
  endfacet
  facet normal 0.87861 -0.285468 0.382822
    outer loop
      vertex 20.052 -4.26219 11
      vertex 16.4438 -7.32126 17
      vertex 18.7277 -8.3381 11
    endloop
  endfacet
  facet normal 0 -0.923824 0.382817
    outer loop
      vertex -2.14283 -20.3877 11
      vertex 1.88151 -17.9014 17
      vertex -1.88151 -17.9014 17
    endloop
  endfacet
  facet normal 0 -0.923824 0.382817
    outer loop
      vertex 1.88151 -17.9014 17
      vertex -2.14283 -20.3877 11
      vertex 2.14283 -20.3877 11
    endloop
  endfacet
  facet normal -0.918768 0.0965558 0.382809
    outer loop
      vertex -17.6067 3.74241 17
      vertex -20.052 4.26219 11
      vertex -18 0 17
    endloop
  endfacet
  facet normal -0.37574 -0.843958 0.382825
    outer loop
      vertex -5.56231 -17.119 17
      vertex -9 -15.5885 17
      vertex -6.33485 -19.4967 11
    endloop
  endfacet
  facet normal -0.543012 -0.747387 0.38282
    outer loop
      vertex -12.0444 -13.3766 17
      vertex -13.7172 -15.2345 11
      vertex -9 -15.5885 17
    endloop
  endfacet
  facet normal -0.918768 -0.0965558 0.382809
    outer loop
      vertex -18 0 17
      vertex -20.052 -4.26219 11
      vertex -17.6067 -3.74241 17
    endloop
  endfacet
  facet normal 0.543002 -0.747398 0.382812
    outer loop
      vertex 13.7172 -15.2345 11
      vertex 9 -15.5885 17
      vertex 10.25 -17.7535 11
    endloop
  endfacet
  facet normal 0.192065 0.903638 0.382818
    outer loop
      vertex 2.14283 20.3877 11
      vertex 1.88151 17.9014 17
      vertex 6.33485 19.4967 11
    endloop
  endfacet
  facet normal 0 0.923824 0.382817
    outer loop
      vertex 2.14283 20.3877 11
      vertex -1.88151 17.9014 17
      vertex 1.88151 17.9014 17
    endloop
  endfacet
  facet normal 0 0.923824 0.382817
    outer loop
      vertex -1.88151 17.9014 17
      vertex 2.14283 20.3877 11
      vertex -2.14283 20.3877 11
    endloop
  endfacet
  facet normal 0.543002 0.747398 0.382812
    outer loop
      vertex 10.25 17.7535 11
      vertex 9 15.5885 17
      vertex 13.7172 15.2345 11
    endloop
  endfacet
  facet normal -0.686545 -0.618148 0.382818
    outer loop
      vertex -12.0444 -13.3766 17
      vertex -14.5623 -10.5801 17
      vertex -13.7172 -15.2345 11
    endloop
  endfacet
  facet normal -0.192078 -0.903632 0.382826
    outer loop
      vertex -5.56231 -17.119 17
      vertex -6.33485 -19.4967 11
      vertex -1.88151 -17.9014 17
    endloop
  endfacet
  facet normal -0.543012 0.747387 0.38282
    outer loop
      vertex -9 15.5885 17
      vertex -13.7172 15.2345 11
      vertex -12.0444 13.3766 17
    endloop
  endfacet
  facet normal 0.375766 0.843953 0.382811
    outer loop
      vertex 10.25 17.7535 11
      vertex 6.33485 19.4967 11
      vertex 9 15.5885 17
    endloop
  endfacet
  facet normal 0.878608 -0.285492 0.382809
    outer loop
      vertex 17.6067 -3.74241 17
      vertex 16.4438 -7.32126 17
      vertex 20.052 -4.26219 11
    endloop
  endfacet
  facet normal 0.918768 -0.0965558 0.382809
    outer loop
      vertex 18 0 17
      vertex 17.6067 -3.74241 17
      vertex 20.052 -4.26219 11
    endloop
  endfacet
  facet normal -0.800048 -0.461922 0.382822
    outer loop
      vertex -16.4438 -7.32126 17
      vertex -18.7277 -8.3381 11
      vertex -16.5848 -12.0496 11
    endloop
  endfacet
  facet normal -0.878608 0.285492 0.382809
    outer loop
      vertex -16.4438 7.32126 17
      vertex -20.052 4.26219 11
      vertex -17.6067 3.74241 17
    endloop
  endfacet
  facet normal -0.878608 -0.285492 0.382809
    outer loop
      vertex -17.6067 -3.74241 17
      vertex -20.052 -4.26219 11
      vertex -16.4438 -7.32126 17
    endloop
  endfacet
  facet normal -0.918763 -0.0965714 0.382818
    outer loop
      vertex -18 0 17
      vertex -20.5 0 11
      vertex -20.052 -4.26219 11
    endloop
  endfacet
  facet normal -0.686545 -0.618147 0.382818
    outer loop
      vertex -14.5623 -10.5801 17
      vertex -16.5848 -12.0496 11
      vertex -13.7172 -15.2345 11
    endloop
  endfacet
  facet normal -0.951051 -0.309035 0
    outer loop
      vertex 15.6504 3.32659 0
      vertex 14.6167 6.50779 17
      vertex 14.6167 6.50779 0
    endloop
  endfacet
  facet normal -0.951051 -0.309035 0
    outer loop
      vertex 14.6167 6.50779 17
      vertex 15.6504 3.32659 0
      vertex 15.6504 3.32659 17
    endloop
  endfacet
  facet normal -0.994523 -0.104517 0
    outer loop
      vertex 16 0 0
      vertex 15.6504 3.32659 17
      vertex 15.6504 3.32659 0
    endloop
  endfacet
  facet normal -0.994523 -0.104517 0
    outer loop
      vertex 15.6504 3.32659 17
      vertex 16 0 0
      vertex 16 0 17
    endloop
  endfacet
  facet normal -0.866032 -0.499989 0
    outer loop
      vertex 14.6167 6.50779 0
      vertex 12.9443 9.40456 17
      vertex 12.9443 9.40456 0
    endloop
  endfacet
  facet normal -0.866032 -0.499989 0
    outer loop
      vertex 12.9443 9.40456 17
      vertex 14.6167 6.50779 0
      vertex 14.6167 6.50779 17
    endloop
  endfacet
  facet normal 0.406737 -0.913545 0
    outer loop
      vertex -8 13.8564 0
      vertex -4.94427 15.2169 17
      vertex -8 13.8564 17
    endloop
  endfacet
  facet normal 0.406737 -0.913545 0
    outer loop
      vertex -4.94427 15.2169 17
      vertex -8 13.8564 0
      vertex -4.94427 15.2169 0
    endloop
  endfacet
  facet normal -0.406737 -0.913545 0
    outer loop
      vertex 4.94427 15.2169 0
      vertex 8 13.8564 17
      vertex 4.94427 15.2169 17
    endloop
  endfacet
  facet normal -0.406737 -0.913545 -0
    outer loop
      vertex 8 13.8564 17
      vertex 4.94427 15.2169 0
      vertex 8 13.8564 0
    endloop
  endfacet
  facet normal -0.994523 0.104517 0
    outer loop
      vertex 15.6504 -3.32659 0
      vertex 16 0 17
      vertex 16 0 0
    endloop
  endfacet
  facet normal -0.994523 0.104517 0
    outer loop
      vertex 16 0 17
      vertex 15.6504 -3.32659 0
      vertex 15.6504 -3.32659 17
    endloop
  endfacet
  facet normal 0.74314 -0.669136 0
    outer loop
      vertex -12.9443 9.40456 17
      vertex -10.7061 11.8903 0
      vertex -10.7061 11.8903 17
    endloop
  endfacet
  facet normal 0.74314 -0.669136 0
    outer loop
      vertex -10.7061 11.8903 0
      vertex -12.9443 9.40456 17
      vertex -12.9443 9.40456 0
    endloop
  endfacet
  facet normal 0.587786 -0.809017 0
    outer loop
      vertex -10.7061 11.8903 0
      vertex -8 13.8564 17
      vertex -10.7061 11.8903 17
    endloop
  endfacet
  facet normal 0.587786 -0.809017 0
    outer loop
      vertex -8 13.8564 17
      vertex -10.7061 11.8903 0
      vertex -8 13.8564 0
    endloop
  endfacet
  facet normal -0.74314 -0.669136 0
    outer loop
      vertex 12.9443 9.40456 0
      vertex 10.7061 11.8903 17
      vertex 10.7061 11.8903 0
    endloop
  endfacet
  facet normal -0.74314 -0.669136 0
    outer loop
      vertex 10.7061 11.8903 17
      vertex 12.9443 9.40456 0
      vertex 12.9443 9.40456 17
    endloop
  endfacet
  facet normal 0 1 -0
    outer loop
      vertex 1.67245 -15.9123 0
      vertex -1.67245 -15.9123 17
      vertex 1.67245 -15.9123 17
    endloop
  endfacet
  facet normal 0 1 0
    outer loop
      vertex -1.67245 -15.9123 17
      vertex 1.67245 -15.9123 0
      vertex -1.67245 -15.9123 0
    endloop
  endfacet
  facet normal -0.951051 0.309035 0
    outer loop
      vertex 14.6167 -6.50779 0
      vertex 15.6504 -3.32659 17
      vertex 15.6504 -3.32659 0
    endloop
  endfacet
  facet normal -0.951051 0.309035 0
    outer loop
      vertex 15.6504 -3.32659 17
      vertex 14.6167 -6.50779 0
      vertex 14.6167 -6.50779 17
    endloop
  endfacet
  facet normal 0.406737 0.913545 -0
    outer loop
      vertex -4.94427 -15.2169 0
      vertex -8 -13.8564 17
      vertex -4.94427 -15.2169 17
    endloop
  endfacet
  facet normal 0.406737 0.913545 0
    outer loop
      vertex -8 -13.8564 17
      vertex -4.94427 -15.2169 0
      vertex -8 -13.8564 0
    endloop
  endfacet
  facet normal 0.866032 0.499989 0
    outer loop
      vertex -12.9443 -9.40456 17
      vertex -14.6167 -6.50779 0
      vertex -14.6167 -6.50779 17
    endloop
  endfacet
  facet normal 0.866032 0.499989 0
    outer loop
      vertex -14.6167 -6.50779 0
      vertex -12.9443 -9.40456 17
      vertex -12.9443 -9.40456 0
    endloop
  endfacet
  facet normal 0.951051 -0.309035 0
    outer loop
      vertex -15.6504 3.32659 17
      vertex -14.6167 6.50779 0
      vertex -14.6167 6.50779 17
    endloop
  endfacet
  facet normal 0.951051 -0.309035 0
    outer loop
      vertex -14.6167 6.50779 0
      vertex -15.6504 3.32659 17
      vertex -15.6504 3.32659 0
    endloop
  endfacet
  facet normal 0.207898 0.97815 -0
    outer loop
      vertex -1.67245 -15.9123 0
      vertex -4.94427 -15.2169 17
      vertex -1.67245 -15.9123 17
    endloop
  endfacet
  facet normal 0.207898 0.97815 0
    outer loop
      vertex -4.94427 -15.2169 17
      vertex -1.67245 -15.9123 0
      vertex -4.94427 -15.2169 0
    endloop
  endfacet
  facet normal 0.951051 0.309035 0
    outer loop
      vertex -14.6167 -6.50779 17
      vertex -15.6504 -3.32659 0
      vertex -15.6504 -3.32659 17
    endloop
  endfacet
  facet normal 0.951051 0.309035 0
    outer loop
      vertex -15.6504 -3.32659 0
      vertex -14.6167 -6.50779 17
      vertex -14.6167 -6.50779 0
    endloop
  endfacet
  facet normal 0.994523 -0.104517 0
    outer loop
      vertex -16 0 17
      vertex -15.6504 3.32659 0
      vertex -15.6504 3.32659 17
    endloop
  endfacet
  facet normal 0.994523 -0.104517 0
    outer loop
      vertex -15.6504 3.32659 0
      vertex -16 0 17
      vertex -16 0 0
    endloop
  endfacet
  facet normal 0 -1 0
    outer loop
      vertex -1.67245 15.9123 0
      vertex 1.67245 15.9123 17
      vertex -1.67245 15.9123 17
    endloop
  endfacet
  facet normal 0 -1 -0
    outer loop
      vertex 1.67245 15.9123 17
      vertex -1.67245 15.9123 0
      vertex 1.67245 15.9123 0
    endloop
  endfacet
  facet normal -0.74314 0.669136 0
    outer loop
      vertex 10.7061 -11.8903 0
      vertex 12.9443 -9.40456 17
      vertex 12.9443 -9.40456 0
    endloop
  endfacet
  facet normal -0.74314 0.669136 0
    outer loop
      vertex 12.9443 -9.40456 17
      vertex 10.7061 -11.8903 0
      vertex 10.7061 -11.8903 17
    endloop
  endfacet
  facet normal -0.207898 0.97815 0
    outer loop
      vertex 4.94427 -15.2169 0
      vertex 1.67245 -15.9123 17
      vertex 4.94427 -15.2169 17
    endloop
  endfacet
  facet normal -0.207898 0.97815 0
    outer loop
      vertex 1.67245 -15.9123 17
      vertex 4.94427 -15.2169 0
      vertex 1.67245 -15.9123 0
    endloop
  endfacet
  facet normal -0.866032 0.499989 0
    outer loop
      vertex 12.9443 -9.40456 0
      vertex 14.6167 -6.50779 17
      vertex 14.6167 -6.50779 0
    endloop
  endfacet
  facet normal -0.866032 0.499989 0
    outer loop
      vertex 14.6167 -6.50779 17
      vertex 12.9443 -9.40456 0
      vertex 12.9443 -9.40456 17
    endloop
  endfacet
  facet normal -0.207898 -0.97815 0
    outer loop
      vertex 1.67245 15.9123 0
      vertex 4.94427 15.2169 17
      vertex 1.67245 15.9123 17
    endloop
  endfacet
  facet normal -0.207898 -0.97815 -0
    outer loop
      vertex 4.94427 15.2169 17
      vertex 1.67245 15.9123 0
      vertex 4.94427 15.2169 0
    endloop
  endfacet
  facet normal -0.587786 0.809017 0
    outer loop
      vertex 10.7061 -11.8903 0
      vertex 8 -13.8564 17
      vertex 10.7061 -11.8903 17
    endloop
  endfacet
  facet normal -0.587786 0.809017 0
    outer loop
      vertex 8 -13.8564 17
      vertex 10.7061 -11.8903 0
      vertex 8 -13.8564 0
    endloop
  endfacet
  facet normal -0.587786 -0.809017 0
    outer loop
      vertex 8 13.8564 0
      vertex 10.7061 11.8903 17
      vertex 8 13.8564 17
    endloop
  endfacet
  facet normal -0.587786 -0.809017 -0
    outer loop
      vertex 10.7061 11.8903 17
      vertex 8 13.8564 0
      vertex 10.7061 11.8903 0
    endloop
  endfacet
  facet normal 0.207898 -0.97815 0
    outer loop
      vertex -4.94427 15.2169 0
      vertex -1.67245 15.9123 17
      vertex -4.94427 15.2169 17
    endloop
  endfacet
  facet normal 0.207898 -0.97815 0
    outer loop
      vertex -1.67245 15.9123 17
      vertex -4.94427 15.2169 0
      vertex -1.67245 15.9123 0
    endloop
  endfacet
  facet normal 0.994523 0.104517 0
    outer loop
      vertex -15.6504 -3.32659 17
      vertex -16 0 0
      vertex -16 0 17
    endloop
  endfacet
  facet normal 0.994523 0.104517 0
    outer loop
      vertex -16 0 0
      vertex -15.6504 -3.32659 17
      vertex -15.6504 -3.32659 0
    endloop
  endfacet
  facet normal -0.406737 0.913545 0
    outer loop
      vertex 8 -13.8564 0
      vertex 4.94427 -15.2169 17
      vertex 8 -13.8564 17
    endloop
  endfacet
  facet normal -0.406737 0.913545 0
    outer loop
      vertex 4.94427 -15.2169 17
      vertex 8 -13.8564 0
      vertex 4.94427 -15.2169 0
    endloop
  endfacet
  facet normal 0.74314 0.669136 0
    outer loop
      vertex -10.7061 -11.8903 17
      vertex -12.9443 -9.40456 0
      vertex -12.9443 -9.40456 17
    endloop
  endfacet
  facet normal 0.74314 0.669136 0
    outer loop
      vertex -12.9443 -9.40456 0
      vertex -10.7061 -11.8903 17
      vertex -10.7061 -11.8903 0
    endloop
  endfacet
  facet normal 0.587786 0.809017 -0
    outer loop
      vertex -8 -13.8564 0
      vertex -10.7061 -11.8903 17
      vertex -8 -13.8564 17
    endloop
  endfacet
  facet normal 0.587786 0.809017 0
    outer loop
      vertex -10.7061 -11.8903 17
      vertex -8 -13.8564 0
      vertex -10.7061 -11.8903 0
    endloop
  endfacet
  facet normal 0.866032 -0.499989 0
    outer loop
      vertex -14.6167 6.50779 17
      vertex -12.9443 9.40456 0
      vertex -12.9443 9.40456 17
    endloop
  endfacet
  facet normal 0.866032 -0.499989 0
    outer loop
      vertex -12.9443 9.40456 0
      vertex -14.6167 6.50779 17
      vertex -14.6167 6.50779 0
    endloop
  endfacet
endsolid OpenSCAD_Model
